<svg xmlns="http://www.w3.org/2000/svg" width="23" height="23" viewBox="0 0 23 23">
  <g id="Group_18090" data-name="Group 18090" transform="translate(-1520.939 -524.118)">
    <circle id="Ellipse_290" data-name="Ellipse 290" cx="11.5" cy="11.5" r="11.5" transform="translate(1520.939 524.118)" fill="#fff"/>
    <g id="body_wh" transform="translate(1522.564 525.598)">
      <g id="Group_18089" data-name="Group 18089" transform="translate(4.669 3.451)">
        <circle id="Ellipse_218" data-name="Ellipse 218" cx="1.591" cy="1.591" r="1.591" transform="translate(2.979 2.25) rotate(-45)" fill="#0c0f12"/>
        <path id="Path_7285" data-name="Path 7285" d="M23.316,22.258a25.672,25.672,0,0,1-9.331,0,.477.477,0,1,0-.174.937,26.62,26.62,0,0,0,3.16.388.758.758,0,0,1,.7.848l-.093.8a15.664,15.664,0,0,1-.868,3.666l-.579,1.548a.477.477,0,0,0,.894.336h0l.142-.289c.463-.987.894-2,1.288-3.018a.214.214,0,0,1,.4,0c.393,1.021.825,2.025,1.288,3.021l.148.315h0a.475.475,0,0,0,.428.289.463.463,0,0,0,.165-.032.475.475,0,0,0,.289-.613L20.593,28.9a15.818,15.818,0,0,1-.868-3.666l-.09-.8a.755.755,0,0,1,.7-.842,26.766,26.766,0,0,0,3.133-.382.5.5,0,0,0,.417-.483.477.477,0,0,0-.57-.469Z" transform="translate(-13.421 -18.215)" fill="#0c0f12"/>
      </g>
      <path id="Path_7286" data-name="Path 7286" d="M9.955,0A9.955,9.955,0,1,0,19.91,9.955,9.955,9.955,0,0,0,9.955,0Zm0,18.962a9.007,9.007,0,1,1,9.007-9.007A9.007,9.007,0,0,1,9.955,18.962Z" fill="#0c0f12"/>
    </g>
  </g>
</svg>
